<?xml version="1.0" encoding="UTF-8"?><svg id="a" xmlns="http://www.w3.org/2000/svg" viewBox="0 0 300 300"><rect width="300" height="300" fill="#fff"/><path d="m150,24.09h0c-39.19,0-74.2,17.91-97.29,45.98,4.57-.24,9.46-.36,14.68-.36,9.44,0,16.96.17,22.59.51,5.62.34,10.53.9,14.73,1.67,2.66.51,4.65,1.42,5.98,2.7,1.33,1.29,1.99,2.79,1.99,4.5,0,2.83-.79,4.89-2.38,6.18-1.59,1.29-4.1,1.8-7.53,1.54-7.72-.6-13.75-1.01-18.08-1.22-4.33-.21-10.02-.36-17.05-.45-3.18,15.79-6.09,31.66-8.75,47.62-.95,5.84-1.93,12.59-2.96,20.27-1.03,7.68-1.72,13.88-2.06,18.6-.17,2.49-1.2,4.4-3.09,5.73-1.89,1.33-4.16,2-6.82,2-2.83,0-5.02-.69-6.56-2.06s-2.32-3.17-2.32-5.41c0-2.06.32-5.47.97-10.23.64-4.76,1.39-9.76,2.25-14.99.94-5.23,1.67-9.78,2.19-13.64.94-6.52,2.01-13,3.22-19.43,1.2-6.43,2.4-12.53,3.6-18.27.26-1.29.56-2.77.9-4.44.34-1.67.73-3.54,1.16-5.6-2.74.08-5.27.22-7.62.39-11.21,18.83-17.66,40.82-17.66,64.33h0c0,69.54,56.37,125.91,125.91,125.91h0c64.44,0,117.57-48.41,125.01-110.85-.34.91-.76,1.77-1.29,2.58-2.32,3.6-5.36,6.46-9.14,8.56-3.78,2.1-8.11,3.15-13,3.15-8.15,0-14.52-2.38-19.11-7.14-.78-.81-1.49-1.67-2.14-2.57-6.52,6.47-12.69,9.71-18.51,9.71s-9.63-1.97-12.16-5.92c-.64-1-1.2-2.09-1.68-3.26-1.95,1.79-3.99,3.39-6.1,4.8-4.37,2.92-9.39,4.38-15.06,4.38-11.72,0-19.51-5.53-23.38-16.56-.21.34-.43.68-.68.99-4.03,4.98-8.86,8.82-14.48,11.52-5.62,2.7-11.05,4.05-16.28,4.05-8.41,0-14.95-2.38-19.63-7.14-.81-.83-1.55-1.7-2.22-2.62-6.54,6.5-12.73,9.76-18.56,9.76s-9.63-1.97-12.16-5.92c-2.53-3.94-3.8-9.18-3.8-15.7,0-3.86.49-8.82,1.48-14.86.99-6.05,2.25-11.69,3.8-16.92.77-2.74,1.8-4.63,3.09-5.66,1.29-1.03,3.35-1.54,6.18-1.54,4.38,0,6.56,1.46,6.56,4.38,0,2.15-.82,7.12-2.45,14.93-2.06,9.44-3.09,15.83-3.09,19.18,0,2.57.34,4.55,1.03,5.92.69,1.37,1.84,2.06,3.47,2.06,1.54,0,3.47-1.07,5.79-3.22,1.18-1.09,2.55-2.5,4.13-4.23-.18-1.41-.27-2.87-.27-4.39,0-6.95,1.37-13.04,4.12-18.27,2.74-5.23,6.31-9.27,10.68-12.1,4.38-2.83,8.96-4.25,13.77-4.25s8.38,1.4,11,4.18c2.62,2.79,3.92,6.37,3.92,10.75,0,3.6-.79,6.65-2.38,9.14-1.59,2.49-3.67,3.73-6.24,3.73-1.63,0-2.94-.39-3.92-1.16-.99-.77-1.48-1.84-1.48-3.22,0-.6.08-1.29.26-2.06.17-.77.3-1.33.39-1.67.43-1.29.64-2.49.64-3.6s-.28-1.97-.84-2.57c-.56-.6-1.35-.9-2.38-.9-1.97,0-3.82.88-5.53,2.64-1.72,1.76-3.09,4.14-4.12,7.14-1.03,3-1.54,6.31-1.54,9.91,0,9.95,4.33,14.93,13,14.93,3.52,0,7.31-1.18,11.39-3.54,4.07-2.36,8.09-5.9,12.03-10.62.84-.98,1.76-1.55,2.77-1.73-.21-2.41-.32-4.96-.32-7.66,0-3.77.13-7.59.39-11.45h-5.02c-2.57,0-4.31-.47-5.21-1.42-.9-.94-1.35-2.45-1.35-4.5,0-4.8,1.93-7.21,5.79-7.21h7.33c1.46-9.44,3.69-18.06,6.69-25.87,3-7.81,6.63-14.03,10.87-18.66,4.25-4.63,8.82-6.95,13.71-6.95,3.6,0,6.43,1.59,8.49,4.76,2.06,3.18,3.09,7.16,3.09,11.97,0,13.3-5.58,24.88-16.73,34.75h14.41c1.37,0,2.36.3,2.96.9.6.6.9,1.72.9,3.35,0,5.92-4.85,8.88-14.54,8.88h-15.7c-.17,4.29-.26,7.64-.26,10.04,0,8.92,1.05,15.19,3.15,18.79,2.1,3.6,5.42,5.41,9.97,5.41,3.69,0,6.95-1.11,9.78-3.35,1.96-1.54,4.16-3.63,6.61-6.23.14-3.51.61-7.75,1.43-12.75.99-6.05,2.25-11.69,3.8-16.92.77-2.74,1.8-4.63,3.09-5.66,1.29-1.03,3.35-1.54,6.18-1.54,4.37,0,6.56,1.46,6.56,4.38,0,2.15-.82,7.12-2.45,14.93-2.06,9.44-3.09,15.83-3.09,19.18,0,2.57.34,4.55,1.03,5.92.69,1.37,1.84,2.06,3.47,2.06,1.54,0,3.47-1.07,5.79-3.22,1.18-1.09,2.55-2.5,4.12-4.23-.17-1.41-.26-2.87-.26-4.39,0-6.95,1.37-13.04,4.12-18.27,2.75-5.23,6.31-9.27,10.68-12.1,4.37-2.83,8.96-4.25,13.77-4.25s8.38,1.4,11,4.18c2.62,2.79,3.93,6.37,3.93,10.75,0,3.6-.79,6.65-2.38,9.14-1.59,2.49-3.67,3.73-6.24,3.73-1.63,0-2.94-.39-3.92-1.16-.99-.77-1.48-1.84-1.48-3.22,0-.6.08-1.29.26-2.06.17-.77.3-1.33.39-1.67.43-1.29.64-2.49.64-3.6s-.28-1.97-.84-2.57c-.56-.6-1.35-.9-2.38-.9-1.97,0-3.82.88-5.53,2.64-1.72,1.76-3.09,4.14-4.12,7.14-1.03,3-1.54,6.31-1.54,9.91,0,4.89,1.01,8.6,3.02,11.13,2.01,2.53,4.87,3.8,8.56,3.8,2.92,0,5.6-.86,8.04-2.57,2.44-1.71,4.87-4.25,7.27-7.59,1.03-1.29,2.19-1.93,3.47-1.93,1.11,0,2,.51,2.64,1.54.34.54.58,1.2.74,1.96.14-2.44.22-4.9.22-7.38h0c0-69.54-56.37-125.91-125.91-125.91Zm-58.5,83.13c-2.23,2.02-5.19,3.02-8.88,3.02s-6.31-.84-8.11-2.51-2.7-4.01-2.7-7.01,1.18-5.51,3.54-7.53c2.36-2.01,5.3-3.02,8.81-3.02,3.17,0,5.75.77,7.72,2.32,1.97,1.54,2.96,3.73,2.96,6.56,0,3.43-1.12,6.16-3.35,8.17Zm130.23,0c-2.23,2.02-5.19,3.02-8.88,3.02s-6.31-.84-8.11-2.51-2.7-4.01-2.7-7.01,1.18-5.51,3.54-7.53c2.36-2.01,5.3-3.02,8.82-3.02,3.17,0,5.75.77,7.72,2.32,1.97,1.54,2.96,3.73,2.96,6.56,0,3.43-1.12,6.16-3.35,8.17Zm-42.4-6.05c-2.53,5.45-6.33,10.36-11.39,14.74.94-6.95,2.12-13.28,3.54-18.98,1.42-5.7,2.92-10.17,4.5-13.38,1.59-3.22,3.02-4.83,4.31-4.83,1.89,0,2.83,2.53,2.83,7.59,0,4.46-1.27,9.42-3.8,14.86Z" fill="#344e41"/></svg>